<svg xmlns="http://www.w3.org/2000/svg" width="120" height="120" viewBox="0 0 120 120">
  <g opacity="0.12">
    <!-- leaves -->
    <path d="M60 82 Q42 72 34 92 Q52 96 60 82" fill="#166534"/>
    <path d="M60 82 Q78 72 86 92 Q68 96 60 82" fill="#166534"/>
    <!-- rose petals -->
    <ellipse cx="60" cy="55" rx="24" ry="24" fill="#be123c" transform="rotate(0 60 55)"/>
    <ellipse cx="60" cy="55" rx="20" ry="26" fill="#9f1239" transform="rotate(45 60 55)"/>
    <ellipse cx="60" cy="55" rx="20" ry="26" fill="#9f1239" transform="rotate(-45 60 55)"/>
    <ellipse cx="60" cy="55" rx="14" ry="14" fill="#881337"/>
    <circle cx="60" cy="55" r="6" fill="#4c0519"/>
    <!-- small accent dots -->
    <circle cx="20" cy="20" r="2" fill="#be123c"/>
    <circle cx="100" cy="100" r="2" fill="#166534"/>
    <circle cx="100" cy="20" r="2" fill="#be123c"/>
    <circle cx="20" cy="100" r="2" fill="#166534"/>
  </g>
</svg>
